<svg viewBox="0 0 500 500" xmlns="http://www.w3.org/2000/svg">
  <defs>
    <linearGradient id="gold" x1="0%" y1="0%" x2="100%" y2="100%">
      <stop offset="0%" style="stop-color:#B8860B"/>
      <stop offset="50%" style="stop-color:#DAA520"/>
      <stop offset="100%" style="stop-color:#F4D03F"/>
    </linearGradient>
  </defs>
  
  <!-- Outer circles -->
  <circle cx="250" cy="250" r="245" fill="none" stroke="url(#gold)" stroke-width="3"/>
  <circle cx="250" cy="250" r="235" fill="none" stroke="url(#gold)" stroke-width="2"/>
  <circle cx="250" cy="250" r="225" fill="none" stroke="url(#gold)" stroke-width="1.5"/>
  
  <!-- Globe at top -->
  <circle cx="250" cy="140" r="45" fill="none" stroke="url(#gold)" stroke-width="3"/>
  <ellipse cx="250" cy="140" rx="45" ry="20" fill="none" stroke="url(#gold)" stroke-width="2"/>
  <ellipse cx="250" cy="140" rx="20" ry="45" fill="none" stroke="url(#gold)" stroke-width="2"/>
  <line x1="250" y1="95" x2="250" y2="185" stroke="url(#gold)" stroke-width="2"/>
  
  <!-- Left mountain -->
  <path d="M 80 240 L 110 190 L 125 210 L 140 180 L 155 200 L 170 240 Z" fill="url(#gold)" stroke="url(#gold)" stroke-width="2"/>
  
  <!-- Wine glass -->
  <path d="M 100 260 L 105 280 L 100 285 L 100 295 L 115 295 L 115 285 L 110 280 L 115 260 Z" fill="url(#gold)" stroke="url(#gold)" stroke-width="2"/>
  <ellipse cx="107.5" cy="260" rx="10" ry="3" fill="none" stroke="url(#gold)" stroke-width="2"/>
  
  <!-- FOREVER YOUNG text -->
  <text x="250" y="280" font-family="serif" font-size="65" font-weight="bold" fill="url(#gold)" text-anchor="middle">FOREVERYOUNG</text>
  
  <!-- TOURS text -->
  <text x="250" y="340" font-family="serif" font-size="65" font-weight="bold" fill="url(#gold)" text-anchor="middle">TOURS</text>
  
  <!-- Right mountain -->
  <path d="M 330 240 L 360 190 L 375 210 L 390 180 L 405 200 L 420 240 Z" fill="url(#gold)" stroke="url(#gold)" stroke-width="2"/>
  
  <!-- Luggage -->
  <rect x="370" y="260" width="50" height="60" rx="5" fill="url(#gold)" stroke="url(#gold)" stroke-width="2"/>
  <circle cx="395" cy="290" r="15" fill="none" stroke="#fff" stroke-width="2"/>
  <path d="M 395 275 L 395 305" stroke="#fff" stroke-width="2"/>
  <path d="M 380 290 L 410 290" stroke="#fff" stroke-width="2"/>
  <rect x="385" y="255" width="20" height="8" fill="url(#gold)" stroke="url(#gold)" stroke-width="1"/>
  
  <!-- Compass at bottom -->
  <circle cx="250" cy="390" r="40" fill="none" stroke="url(#gold)" stroke-width="3"/>
  <text x="250" y="375" font-family="sans-serif" font-size="14" font-weight="bold" fill="url(#gold)" text-anchor="middle">N</text>
  <text x="250" y="410" font-family="sans-serif" font-size="14" font-weight="bold" fill="url(#gold)" text-anchor="middle">S</text>
  <text x="225" y="395" font-family="sans-serif" font-size="14" font-weight="bold" fill="url(#gold)" text-anchor="middle">W</text>
  <text x="275" y="395" font-family="sans-serif" font-size="14" font-weight="bold" fill="url(#gold)" text-anchor="middle">E</text>
  <circle cx="250" cy="390" r="8" fill="url(#gold)"/>
  <path d="M 250 382 L 255 390 L 250 398 L 245 390 Z" fill="#fff"/>
  
  <!-- EST. 2023 -->
  <text x="180" y="395" font-family="sans-serif" font-size="12" font-weight="bold" fill="url(#gold)">EST.</text>
  <text x="310" y="395" font-family="sans-serif" font-size="12" font-weight="bold" fill="url(#gold)">2023</text>
  
  <!-- Decorative lines -->
  <line x1="60" y1="200" x2="90" y2="200" stroke="url(#gold)" stroke-width="1.5"/>
  <line x1="60" y1="210" x2="85" y2="210" stroke="url(#gold)" stroke-width="1.5"/>
  <line x1="60" y1="220" x2="80" y2="220" stroke="url(#gold)" stroke-width="1.5"/>
  
  <line x1="410" y1="200" x2="440" y2="200" stroke="url(#gold)" stroke-width="1.5"/>
  <line x1="415" y1="210" x2="440" y2="210" stroke="url(#gold)" stroke-width="1.5"/>
  <line x1="420" y1="220" x2="440" y2="220" stroke="url(#gold)" stroke-width="1.5"/>
  
  <!-- Stars -->
  <path d="M 450 120 L 453 127 L 460 127 L 454 132 L 457 139 L 450 134 L 443 139 L 446 132 L 440 127 L 447 127 Z" fill="url(#gold)"/>
  <path d="M 50 120 L 53 127 L 60 127 L 54 132 L 57 139 L 50 134 L 43 139 L 46 132 L 40 127 L 47 127 Z" fill="url(#gold)"/>
  <path d="M 250 60 L 253 67 L 260 67 L 254 72 L 257 79 L 250 74 L 243 79 L 246 72 L 240 67 L 247 67 Z" fill="url(#gold)"/>
  
  <!-- Sun rays top right -->
  <circle cx="420" cy="100" r="12" fill="url(#gold)"/>
  <line x1="420" y1="85" x2="420" y2="75" stroke="url(#gold)" stroke-width="2"/>
  <line x1="435" y1="100" x2="445" y2="100" stroke="url(#gold)" stroke-width="2"/>
  <line x1="431" y1="89" x2="438" y2="82" stroke="url(#gold)" stroke-width="2"/>
  <line x1="431" y1="111" x2="438" y2="118" stroke="url(#gold)" stroke-width="2"/>
</svg>
